<?xml version="1.0" encoding="UTF-8"?>
<svg xmlns="http://www.w3.org/2000/svg" xmlns:xlink="http://www.w3.org/1999/xlink" width="19pt" height="19pt" viewBox="0 0 19 19" version="1.1">
<g id="surface143439">
<path style=" stroke:none;fill-rule:nonzero;fill:#64b5f6;fill-opacity:1;" d="M 11.875 2.375 L 11.875 3.167969 L 15.832031 3.167969 C 16.699219 3.167969 17.417969 3.882812 17.417969 4.75 L 17.417969 11.929688 L 16.285156 9.910156 C 16.164062 9.691406 16.011719 9.5 15.832031 9.332031 L 15.832031 4.75 L 3.167969 4.75 L 3.167969 11.082031 L 11.554688 11.082031 L 10.667969 12.667969 L 3.167969 12.667969 L 3.167969 14.25 L 9.78125 14.25 L 8.894531 15.832031 L 3.167969 15.832031 C 2.300781 15.832031 1.582031 15.117188 1.582031 14.25 L 1.582031 4.75 C 1.582031 3.882812 2.300781 3.167969 3.167969 3.167969 L 7.125 3.167969 L 7.125 2.375 Z M 10.292969 8.707031 C 10.292969 9.144531 9.9375 9.5 9.5 9.5 C 9.0625 9.5 8.707031 9.144531 8.707031 8.707031 C 8.707031 8.269531 9.0625 7.917969 9.5 7.917969 C 9.9375 7.917969 10.292969 8.269531 10.292969 8.707031 Z M 10.292969 8.707031 "/>
<path style=" stroke:none;fill-rule:nonzero;fill:rgb(100%,71.764706%,30.196078%);fill-opacity:1;" d="M 13.59375 10.683594 L 9.605469 17.8125 C 9.308594 18.339844 9.675781 19 10.261719 19 L 18.238281 19 C 18.824219 19 19.191406 18.339844 18.894531 17.8125 L 14.90625 10.683594 C 14.613281 10.160156 13.886719 10.160156 13.59375 10.683594 Z M 15.046875 18.210938 L 13.453125 18.210938 L 13.457031 16.625 L 15.042969 16.625 Z M 13.457031 15.839844 L 13.457031 12.667969 L 15.042969 12.667969 L 15.042969 15.835938 Z M 13.457031 15.839844 "/>
</g>
</svg>
