<?xml version="1.0" encoding="UTF-8"?>
<svg xmlns="http://www.w3.org/2000/svg" xmlns:xlink="http://www.w3.org/1999/xlink" width="19pt" height="19pt" viewBox="0 0 19 19" version="1.1">
<g id="surface247093">
<path style=" stroke:none;fill-rule:nonzero;fill:#64b5f6;fill-opacity:1;" d="M 11.875 2.375 L 11.875 3.167969 L 15.832031 3.167969 C 16.699219 3.167969 17.417969 3.882812 17.417969 4.75 L 17.417969 8.789062 C 16.894531 8.683594 16.355469 8.683594 15.832031 8.789062 L 15.832031 4.75 L 3.167969 4.75 L 3.167969 11.082031 L 12.609375 11.082031 L 11.027344 12.667969 L 3.167969 12.667969 L 3.167969 14.25 L 9.5 14.25 C 9.144531 14.71875 8.902344 15.257812 8.785156 15.832031 L 3.167969 15.832031 C 2.300781 15.832031 1.582031 15.117188 1.582031 14.25 L 1.582031 4.75 C 1.582031 3.882812 2.300781 3.167969 3.167969 3.167969 L 7.125 3.167969 L 7.125 2.375 Z M 10.292969 8.707031 C 10.292969 9.144531 9.9375 9.5 9.5 9.5 C 9.0625 9.5 8.707031 9.144531 8.707031 8.707031 C 8.707031 8.269531 9.0625 7.917969 9.5 7.917969 C 9.9375 7.917969 10.292969 8.269531 10.292969 8.707031 Z M 10.292969 8.707031 "/>
<path style=" stroke:none;fill-rule:nonzero;fill:rgb(100%,71.764706%,30.196078%);fill-opacity:1;" d="M 12.667969 19 C 12.03125 19 11.4375 18.753906 10.988281 18.304688 C 10.539062 17.855469 10.292969 17.257812 10.292969 16.625 C 10.292969 15.992188 10.539062 15.394531 10.988281 14.945312 L 12.109375 13.824219 L 13.226562 14.945312 L 12.105469 16.066406 C 11.957031 16.214844 11.875 16.414062 11.875 16.625 C 11.875 16.835938 11.957031 17.035156 12.105469 17.183594 C 12.40625 17.484375 12.925781 17.484375 13.226562 17.183594 L 14.347656 16.0625 L 15.464844 17.183594 L 14.347656 18.304688 C 13.898438 18.753906 13.300781 19 12.667969 19 Z M 18.304688 14.347656 C 18.753906 13.898438 19 13.300781 19 12.664062 C 19 12.03125 18.753906 11.433594 18.304688 10.988281 C 17.378906 10.058594 15.871094 10.058594 14.945312 10.988281 L 13.78125 12.152344 L 14.898438 13.273438 L 16.066406 12.105469 C 16.375 11.796875 16.875 11.796875 17.183594 12.105469 C 17.335938 12.253906 17.417969 12.453125 17.417969 12.664062 C 17.417969 12.878906 17.335938 13.074219 17.183594 13.226562 L 16.039062 14.371094 L 17.160156 15.488281 Z M 16.03125 14.378906 L 14.910156 13.261719 L 13.226562 14.945312 L 14.347656 16.0625 Z M 16.03125 14.378906 "/>
</g>
</svg>
