<?xml version="1.0"?>
<svg xmlns="http://www.w3.org/2000/svg" xmlns:xlink="http://www.w3.org/1999/xlink" version="1.1" viewBox="0 0 172 172" width="24px" height="24px"><g fill="none" fill-rule="nonzero" stroke="none" stroke-width="1" stroke-linecap="butt" stroke-linejoin="miter" stroke-miterlimit="10" stroke-dasharray="" stroke-dashoffset="0" font-family="none" font-weight="none" font-size="none" text-anchor="none" style="mix-blend-mode: normal"><path d="M0,172v-172h172v172z" fill="none"/><g id="original-icon" fill="#64b5f6"><path d="M64.5,21.5v7.16667h-35.83333c-7.83362,0 -14.33333,6.49972 -14.33333,14.33333v28.66667v28.66667v28.66667c0,7.83362 6.49972,14.33333 14.33333,14.33333h114.66667c7.83362,0 14.33333,-6.49972 14.33333,-14.33333v-28.66667v-28.66667v-28.66667c0,-7.83362 -6.49972,-14.33333 -14.33333,-14.33333h-35.83333v-7.16667zM28.66667,43h114.66667v28.66667v28.66667h-114.66667v-28.66667zM86,71.66667c-3.95804,0 -7.16667,3.20863 -7.16667,7.16667c0,3.95804 3.20863,7.16667 7.16667,7.16667c3.95804,0 7.16667,-3.20863 7.16667,-7.16667c0,-3.95804 -3.20863,-7.16667 -7.16667,-7.16667zM28.66667,114.66667h114.66667v14.33333h-114.66667z"/></g></g></svg>
