<?xml version="1.0" encoding="UTF-8" standalone="yes"?>
<svg xmlns="http://www.w3.org/2000/svg" xmlns:xlink="http://www.w3.org/1999/xlink" width="24px" height="24px" viewBox="0 0 24 24" version="1.1">
  <g id="surface18936">
    <path style=" stroke:none;fill-rule:nonzero;fill-opacity:1;" d="M 16.691406 4.871094 L 16.785156 5.1875 L 17.230469 6.742188 L 17.457031 7.542969 L 18.257812 7.773438 L 19.8125 8.21875 L 20.132812 8.308594 C 19.691406 9.023438 18.898438 9.5 18 9.5 C 17.914062 9.5 17.78125 9.480469 17.625 9.457031 L 16.875 9.34375 L 6.769531 19.449219 C 6.734375 19.484375 6.695312 19.5 6.648438 19.5 C 6.601562 19.5 6.5625 19.484375 6.527344 19.449219 L 5.550781 18.472656 C 5.484375 18.40625 5.484375 18.296875 5.550781 18.230469 L 15.121094 8.660156 L 15.65625 8.109375 L 15.539062 7.359375 C 15.519531 7.21875 15.5 7.085938 15.5 7 C 15.5 6.101562 15.976562 5.308594 16.691406 4.871094 M 18 3 C 15.789062 3 14 4.789062 14 7 C 14 7.203125 14.03125 7.402344 14.058594 7.597656 L 4.488281 17.171875 C 3.835938 17.820312 3.835938 18.878906 4.488281 19.53125 L 5.46875 20.511719 C 5.792969 20.835938 6.222656 21 6.648438 21 C 7.074219 21 7.503906 20.835938 7.828125 20.511719 L 17.402344 10.941406 C 17.597656 10.96875 17.796875 11 18 11 C 20.210938 11 22 9.210938 22 7 C 22 6.414062 21.867188 5.859375 21.640625 5.359375 L 20.226562 6.773438 L 18.671875 6.328125 L 18.226562 4.773438 L 19.640625 3.359375 C 19.140625 3.132812 18.585938 3 18 3 Z M 18 3 "/>
    <path style="fill:none;stroke-width:2;stroke-linecap:butt;stroke-linejoin:miter;stroke:#000000;stroke-opacity:1;stroke-miterlimit:10;" d="M 11.160156 11.160156 L 6 6 "/>
    <path style=" stroke:none;fill-rule:nonzero;fill-opacity:1;" d="M 3 5 L 5 3 L 7.109375 4.40625 C 7.664062 4.777344 8 5.402344 8 6.070312 L 8 8 L 6.070312 8 C 5.402344 8 4.777344 7.664062 4.40625 7.109375 Z M 14.769531 13.550781 L 19.449219 18.230469 C 19.515625 18.296875 19.515625 18.402344 19.449219 18.472656 L 18.472656 19.449219 C 18.441406 19.480469 18.398438 19.5 18.351562 19.5 C 18.304688 19.5 18.265625 19.480469 18.234375 19.449219 L 13.550781 14.769531 L 14.769531 13.550781 M 14.769531 11.429688 L 11.429688 14.769531 L 17.171875 20.511719 C 17.496094 20.835938 17.925781 21 18.351562 21 C 18.777344 21 19.207031 20.835938 19.53125 20.511719 L 20.511719 19.53125 C 21.160156 18.882812 21.160156 17.824219 20.511719 17.171875 Z M 14.769531 11.429688 "/>
  </g>
</svg>
