<?xml version="1.0" encoding="UTF-8"?>
<svg xmlns="http://www.w3.org/2000/svg" xmlns:xlink="http://www.w3.org/1999/xlink" width="24pt" height="24pt" viewBox="0 0 24 24" version="1.1">
<g id="surface1924594">
<path d="M 7 2 L 7 4 L 19 4 L 19 11.417969 C 18.441406 11.660156 17.921875 12.007812 17.464844 12.464844 L 17 12.929688 L 17 6 L 7 6 L 7 13 L 4 13 C 3.433594 13 3 13.433594 3 14 C 3 14.566406 3.433594 15 4 15 L 14.929688 15 L 12.929688 17 L 7 17 L 7 18 C 7 18.566406 7.433594 19 8 19 L 11.414062 19 C 11.144531 19.621094 11 20.300781 11 21 L 8 21 C 6.742188 21 5.859375 20.105469 5.417969 19 L 5 19 L 5 17 L 4 17 C 2.355469 17 1 15.644531 1 14 L 1 5 C 1 3.355469 2.355469 2 4 2 Z M 21 7 L 23 7 L 23 11.414062 C 22.363281 11.140625 21.683594 11 21 11 Z M 3 5 L 3 11.417969 C 3.34375 11.277344 3.613281 11 4 11 L 5 11 L 5 4 L 4 4 C 3.433594 4 3 4.433594 3 5 Z M 15 8 L 15 12 L 13.707031 10.707031 L 11 13.414062 L 8.292969 10.707031 L 9.707031 9.292969 L 11 10.585938 L 12.292969 9.292969 L 11 8 Z M 15 8 "/>
<path d="M 16 24 C 15.199219 24 14.445312 23.6875 13.878906 23.121094 C 13.3125 22.554688 13 21.800781 13 21 C 13 20.199219 13.3125 19.445312 13.878906 18.878906 L 15.296875 17.460938 L 16.710938 18.875 L 15.292969 20.292969 C 15.105469 20.480469 15 20.730469 15 21 C 15 21.265625 15.105469 21.519531 15.292969 21.707031 C 15.671875 22.085938 16.328125 22.085938 16.707031 21.707031 L 18.121094 20.289062 L 19.535156 21.703125 L 18.121094 23.121094 C 17.554688 23.6875 16.800781 24 16 24 Z M 23.121094 18.121094 C 23.6875 17.554688 24 16.800781 24 16 C 24 15.199219 23.6875 14.445312 23.121094 13.878906 C 21.949219 12.707031 20.050781 12.707031 18.878906 13.878906 L 17.40625 15.351562 L 18.820312 16.765625 L 20.292969 15.292969 C 20.683594 14.902344 21.316406 14.902344 21.707031 15.292969 C 21.894531 15.480469 22 15.730469 22 16 C 22 16.265625 21.894531 16.515625 21.707031 16.707031 L 20.261719 18.152344 L 21.675781 19.566406 Z M 20.246094 18.164062 L 18.835938 16.75 L 16.710938 18.875 L 18.121094 20.289062 Z M 20.246094 18.164062 "/>
</g>
</svg>
