<?xml version="1.0"?>
<svg xmlns="http://www.w3.org/2000/svg" viewBox="0 0 24 24" width="24px" height="24px">
    <path d="M 12 2 C 6.477 2 2 6.477 2 12 C 2 17.523 6.477 22 12 22 C 17.523 22 22 17.523 22 12 C 22 6.477 17.523 2 12 2 z M 12 4 C 16.418 4 20 7.582 20 12 C 20 16.418 16.418 20 12 20 C 7.582 20 4 16.418 4 12 C 4 7.582 7.582 4 12 4 z M 11 7 L 11 13.585938 L 8.7070312 11.292969 L 7.2929688 12.707031 L 12 17.414062 L 16.707031 12.707031 L 15.292969 11.292969 L 13 13.585938 L 13 7 L 11 7 z"/>
</svg>
